HIERARCHY
ROOT Hips
{
     OFFSET 1.88212 96.90440 -13.34250
     CHANNELS 6 Xposition Yposition Zposition Zrotation Xrotation Yrotation
     JOINT Spine
     {
          OFFSET 0.00000 11.89050 0.00000
          CHANNELS 3 Zrotation Xrotation Yrotation
          JOINT Spine1
          {
               OFFSET -0.00000 25.65740 0.12766
               CHANNELS 3 Zrotation Xrotation Yrotation
               JOINT HEad
               {
                    OFFSET 0.00000 8.73416 0.01134
                    CHANNELS 3 Zrotation Xrotation Yrotation
                    End Site
                    {
                         OFFSET -0.29000 12.77420 2.51395
                    }
               }
               JOINT LeftShoulder1
               {
                    OFFSET 8.99000 -0.36225 -0.22000
                    CHANNELS 3 Zrotation Xrotation Yrotation
                    JOINT LeftArm
                    {
                         OFFSET 10.28270 -0.00338 0.32212
                         CHANNELS 3 Zrotation Xrotation Yrotation
                         JOINT LeftForeArm
                         {
                              OFFSET 32.76690 0.09914 -1.42434
                              CHANNELS 3 Zrotation Xrotation Yrotation
                              JOINT LeftHand
                              {
                                   OFFSET 27.56430 0.08536 1.02216
                                   CHANNELS 3 Zrotation Xrotation Yrotation
                                   End Site
                                   {
                                        OFFSET 16.74430 -0.60000 1.50291
                                   }
                              }
                         }
                    }
               }
               JOINT RightShoulder
               {
                    OFFSET -8.99000 -0.36225 -0.22000
                    CHANNELS 3 Zrotation Xrotation Yrotation
                    JOINT RightArm
                    {
                         OFFSET -10.28270 -0.00338 0.32212
                         CHANNELS 3 Zrotation Xrotation Yrotation
                         JOINT RightForeArm
                         {
                              OFFSET -32.89710 0.09914 -1.42434
                              CHANNELS 3 Zrotation Xrotation Yrotation
                              JOINT RightHand
                              {
                                   OFFSET -27.49210 0.08536 1.02216
                                   CHANNELS 3 Zrotation Xrotation Yrotation
                                   End Site
                                   {
                                        OFFSET -16.63120 -0.60000 1.50291
                                   }
                              }
                         }
                    }
               }
          }
     }
     JOINT LeftUpLeg
     {
          OFFSET 8.94580 -8.66707 0.10165
          CHANNELS 3 Zrotation Xrotation Yrotation
          JOINT LeftLeg
          {
               OFFSET 0.00000 -44.42270 1.37270
               CHANNELS 3 Zrotation Xrotation Yrotation
               JOINT LeftFoot
               {
                    OFFSET -0.25355 -42.09240 -1.46059
                    CHANNELS 3 Zrotation Xrotation Yrotation
                    JOINT LeftToes
                    {
                         OFFSET -0.04000 -4.41509 8.49910
                         CHANNELS 3 Zrotation Xrotation Yrotation
                         End Site
                         {
                              OFFSET 0.08000 -0.04745 9.77979
                         }
                    }
               }
          }
     }
     JOINT RightUpLeg
     {
          OFFSET -8.94580 -8.66707 0.10165
          CHANNELS 3 Zrotation Xrotation Yrotation
          JOINT RightLeg
          {
               OFFSET 0.00000 -44.42270 1.37270
               CHANNELS 3 Zrotation Xrotation Yrotation
               JOINT RightFoot
               {
                    OFFSET 0.25355 -42.09240 -1.46059
                    CHANNELS 3 Zrotation Xrotation Yrotation
                    JOINT RightToes
                    {
                         OFFSET 0.04000 -4.41509 8.49910
                         CHANNELS 3 Zrotation Xrotation Yrotation
                         End Site
                         {
                              OFFSET -0.08000 -0.13745 9.77979
                         }
                    }
               }
          }
     }
}
MOTION
Frames: 20
Frame Time: 0.01667
60.94769 91.18113 -22.68570 7.62523 7.17576 145.07607 -9.01963 19.39909 -4.52771 -0.02051 0.02216 0.04372 -28.05706 25.56216 27.48738 -6.16874 10.86358 16.39925 -148.64136 -64.61004 -123.91956 -31.57155 62.86598 -87.54678 14.24768 4.13635 -8.44759 11.34794 17.32892 16.66229 73.61221 6.23867 75.04384 6.04161 21.70530 87.10610 18.80644 13.60058 11.52943 22.21636 -9.87613 -16.83024 -25.17369 8.26575 57.88173 18.96825 -0.00597 -0.00497 -13.43684 -1.39459 -40.08934 -24.39996 11.42342 15.80739 35.16072 3.24962 -37.49095 -30.07820 0.01763 -0.02074 15.05636 -24.12532 17.51942 
59.90248 91.61356 -23.36332 6.72518 8.25659 146.34026 -9.00030 19.87293 -6.36724 -0.04255 0.08624 0.11839 -32.01079 28.32327 29.61779 -7.12380 10.56655 16.46389 -149.83046 -65.57535 -125.26350 -31.58807 62.81982 -87.70187 14.36780 4.72084 -8.02741 10.52539 16.99266 16.83670 72.51297 6.60837 75.52314 5.05952 20.19676 87.05254 17.96564 13.23833 11.46732 19.28518 -8.67605 -22.66897 -23.70163 4.42975 59.67693 18.79381 -0.00499 -0.00423 -11.95112 -0.99488 -38.14809 -26.79247 15.36649 13.60821 34.41184 -0.28581 -35.10380 -28.57611 0.02262 -0.02269 13.83695 -23.04810 18.38928 
58.89602 91.91969 -24.15249 5.97584 9.20026 147.55215 -9.27178 20.95359 -6.26911 -0.04587 0.08241 0.10090 -34.04966 30.98578 29.73177 -7.20684 10.04224 14.73840 -150.73380 -66.26773 -126.28243 -31.34911 62.80615 -87.81109 14.47255 4.70720 -8.34079 10.73052 15.93300 15.20919 72.11871 6.69745 75.64859 4.25794 19.61187 87.36117 18.17552 13.24853 11.86125 16.85680 -7.00766 -26.67466 -22.45544 1.88258 62.51972 18.06000 -0.00849 -0.01939 -10.35015 -1.89555 -38.80995 -28.75676 18.78626 11.72548 33.92437 -3.25619 -33.08298 -26.86570 0.02120 -0.02292 12.41549 -22.00121 19.07417 
57.95033 92.12597 -25.02497 5.37980 10.03957 148.67589 -9.51194 21.69194 -5.67289 -0.01450 0.01196 0.00146 -34.00617 32.79712 29.21319 -7.16120 10.04241 12.74574 -151.17751 -66.73623 -126.82076 -30.81490 62.77811 -87.98028 14.62351 5.16595 -8.11277 11.07917 15.28826 13.12439 72.24583 6.55985 75.52380 3.57331 19.63838 87.96951 17.52135 12.94735 11.76203 14.90259 -5.28718 -28.98253 -21.69347 0.35295 66.05398 16.96585 0.01318 -0.03054 -8.68589 -3.76202 -41.55684 -30.33993 21.61954 10.14600 33.56958 -5.66966 -31.43905 -24.98016 0.01874 -0.02387 10.83824 -20.96413 19.57823 
57.07026 92.26291 -25.94723 4.93882 10.79161 149.67303 -9.75238 22.42606 -4.99047 -0.01032 0.00754 -0.00726 -32.03433 33.29692 27.90505 -6.92749 10.05227 10.78336 -151.07114 -67.03491 -126.79066 -30.06635 62.69772 -88.26170 14.73666 5.25734 -8.27598 11.57703 14.64393 10.97474 72.70408 6.29393 75.23717 2.96116 20.06351 88.84124 17.56372 12.85065 11.85031 13.35153 -3.79927 -29.73240 -21.57379 -0.21331 69.95724 15.51737 0.04195 -0.04380 -7.09008 -6.36380 -45.89001 -31.59477 23.87342 8.86636 33.25911 -7.51481 -30.14614 -22.91944 0.01533 -0.02437 9.11951 -19.95514 19.97256 
56.22002 92.35858 -26.85264 4.64016 11.44591 150.50882 -9.99275 23.12259 -4.22091 -0.00839 0.00671 -0.00976 -28.63516 32.50983 26.03358 -6.57286 10.10904 8.97850 -150.49754 -67.21632 -126.27910 -29.19265 62.54915 -88.65417 14.86030 5.61888 -8.07787 12.15012 14.07619 8.90529 73.36375 5.92905 74.86222 2.40325 20.70751 89.90854 17.10583 12.57230 11.65947 12.13568 -2.59757 -29.04264 -21.41948 -0.81244 72.10681 14.39924 0.03939 -0.01655 -5.50363 -8.31040 -49.75201 -32.64441 24.59323 8.38817 33.02291 -8.05731 -30.09081 -20.62030 0.00927 -0.02152 7.29568 -19.20203 20.20012 
55.35345 92.43458 -27.67043 4.46168 11.98156 151.16977 -10.22587 23.75068 -3.37878 -0.00672 0.00644 -0.01115 -25.44580 31.55593 24.29310 -6.12376 10.19135 7.33606 -149.59760 -67.31357 -125.42775 -28.26060 62.34026 -89.15004 14.94251 5.77224 -8.08862 12.77569 13.57693 6.98390 74.12654 5.47877 74.45148 1.87487 21.45830 91.11592 17.11966 12.45744 11.53811 11.18974 -1.66814 -27.03123 -21.36094 -1.09174 72.67503 13.36348 0.03050 -0.00888 -3.90423 -9.93666 -53.09255 -33.53176 24.04999 8.59111 32.84617 -7.29680 -30.99636 -18.06050 0.00135 -0.01284 5.39926 -18.89376 20.22190 
54.43945 92.50394 -28.34973 4.37748 12.37545 151.65912 -10.43939 24.29086 -2.49018 -0.00518 0.00660 -0.01173 -22.50833 30.45647 22.70625 -5.59963 10.26671 5.83841 -148.52992 -67.33719 -124.39573 -27.31851 62.09743 -89.70812 15.02382 6.08910 -7.87540 13.42332 13.12102 5.27268 74.93262 4.93778 74.05571 1.36341 22.22453 92.38922 16.84890 12.26649 11.27629 10.42262 -1.10338 -24.92130 -21.43730 -1.16504 72.87932 12.25568 0.02651 -0.00665 -2.28301 -11.40493 -55.93824 -34.25600 22.45803 9.33951 32.81847 -5.31546 -32.62076 -15.25874 -0.00695 0.00121 3.45617 -19.11841 20.02195 
53.50310 92.58414 -28.91770 4.37352 12.63852 152.03343 -10.60559 24.76585 -1.62809 -0.00376 0.00693 -0.01172 -19.85202 29.24034 21.28735 -5.02152 10.30964 4.48245 -147.43295 -67.28330 -123.32197 -26.41053 61.85758 -90.28587 15.08482 6.29381 -7.79321 14.06388 12.68960 3.80307 75.74564 4.31882 73.71584 0.85525 22.95677 93.66933 16.89363 12.18897 11.06167 9.81972 -0.76860 -22.79597 -21.62021 -1.00563 72.74542 10.97880 0.02471 -0.00650 -0.62800 -12.77901 -58.31130 -34.70246 20.71688 10.04650 34.51636 -1.98011 -32.91180 -22.13976 0.20784 -0.02466 9.85469 -21.17738 18.18513 
52.59169 92.67822 -29.40863 4.43604 12.78166 152.32567 -10.70945 25.18480 -0.83272 -0.00250 0.00721 -0.01138 -17.49278 27.94708 20.04441 -4.41104 10.30995 3.28014 -146.40874 -67.14188 -122.31359 -25.56950 61.65311 -90.84393 15.16378 6.60748 -7.58958 14.66525 12.27707 2.57876 76.55376 3.64816 73.46658 0.34624 23.62017 94.90678 16.77065 12.06147 10.80898 9.37851 -0.56186 -20.71002 -21.87631 -0.61982 72.30572 9.47633 0.02319 -0.00733 1.06196 -14.07541 -60.24810 -34.93984 18.83103 10.70221 35.84741 0.93930 -33.44221 -28.89979 0.13253 -0.04689 16.26292 -22.32382 16.67872 
51.74797 92.79321 -29.85430 4.56513 12.82427 152.55351 -10.73963 25.55870 -0.12033 -0.00147 0.00730 -0.01085 -15.43226 26.62367 18.97765 -3.79259 10.27120 2.25254 -145.50699 -66.90534 -121.43184 -24.80765 61.50248 -91.37271 15.25546 6.86410 -7.47094 15.20699 11.88966 1.57713 77.35373 2.96726 73.32605 -0.16888 24.20706 96.08202 16.84454 11.98622 10.59568 9.09966 -0.44198 -18.70210 -22.16999 -0.02340 71.61271 7.74677 0.02096 -0.00827 2.79266 -15.26570 -61.79249 -35.02399 16.71009 11.31624 38.40624 4.85265 -33.97633 -21.37214 -0.08041 0.18863 7.52670 -24.60104 14.33285 
50.99848 92.93471 -30.26772 4.76138 12.78430 152.74599 -10.68351 25.89480 0.48779 -0.00072 0.00721 -0.01019 -13.65846 25.31766 18.07790 -3.19216 10.20321 1.41733 -144.72697 -66.57138 -120.69301 -24.11703 61.40866 -91.87963 15.37840 7.17834 -7.27536 15.68385 11.53650 0.76430 78.14110 2.31363 73.29794 -0.68877 24.71707 97.19173 16.80765 11.86475 10.37630 8.98343 -0.36880 -16.81542 -22.45919 0.73422 70.70980 5.81052 0.01788 -0.00881 4.57360 -16.31275 -62.98460 -35.01917 14.36475 11.89345 41.38111 9.03951 -33.83380 -29.08701 0.28615 -0.05289 13.59233 -27.22912 11.45197 
50.34319 93.10375 -30.64182 5.01953 12.67406 152.91814 -10.54107 26.19084 0.99122 -0.00020 0.00693 -0.00939 -12.14981 24.07016 17.32702 -2.63367 10.11506 0.78151 -144.03342 -66.14326 -120.07690 -23.47657 61.36372 -92.38579 15.51627 7.43855 -7.11501 16.10498 11.22310 0.10933 78.90408 1.71089 73.37106 -1.21401 25.16092 98.24533 16.87999 11.76852 10.17311 9.02002 -0.32516 -15.07010 -22.70855 1.60281 69.63675 3.70171 0.01417 -0.00872 6.41415 -17.18475 -63.85683 -34.92339 11.91663 12.43208 43.60925 11.80643 -34.38853 -25.55147 -0.06092 -0.00579 8.58071 -27.78730 9.45696 
49.76489 93.29751 -30.95599 5.32958 12.50085 153.07722 -10.31958 26.44106 1.40090 0.00008 0.00665 -0.00849 -10.88069 22.91150 16.70103 -2.13487 10.01173 0.33173 -143.38893 -65.62903 -119.55472 -22.85598 61.35328 -92.91141 15.66794 7.70577 -6.88875 16.47840 10.94896 -0.40630 79.63229 1.16115 73.53081 -1.74273 25.54483 99.25076 16.86637 11.65402 9.97419 9.18829 -0.32229 -13.47004 -22.89133 2.53566 68.43226 1.46867 0.01010 -0.00794 8.32033 -17.86298 -64.44101 -34.75496 9.50736 12.94152 45.27822 13.79153 -35.24099 -27.62762 0.03619 -0.00974 9.67897 -28.02048 8.35743 
49.24522 93.51253 -31.19573 5.67708 12.27135 153.22975 -10.02958 26.64168 1.72903 0.00027 0.00639 -0.00755 -9.82689 21.86139 16.17436 -1.69916 9.89492 0.04174 -142.77638 -65.03811 -119.10108 -22.22704 61.36379 -93.47344 15.81111 7.92039 -6.66793 16.80889 10.70995 -0.78793 80.31859 0.65062 73.76278 -2.27778 25.87353 100.21574 16.89912 11.57269 9.78504 9.45693 -0.38215 -12.01292 -22.98839 3.48500 67.13234 -0.83398 0.00600 -0.00655 10.29428 -18.34488 -64.77509 -34.51491 7.24438 13.42899 46.55424 15.30245 -36.20875 -26.85529 0.00695 -0.00492 8.25826 -27.84275 7.86445 
48.77309 93.74385 -31.35666 6.04593 11.99336 153.38432 -9.68023 26.79226 1.98383 0.00047 0.00621 -0.00661 -8.96778 20.93085 15.72330 -1.31937 9.76536 -0.11924 -142.20377 -64.37914 -118.70288 -21.57318 61.38839 -94.07742 15.94636 8.12151 -6.39727 17.09265 10.50106 -1.03680 80.96549 0.16018 74.05870 -2.82193 26.14625 101.14295 16.86706 11.49499 9.59893 9.79140 -0.51945 -10.69755 -22.98841 4.40414 65.76849 -3.15845 0.00214 -0.00477 12.33408 -18.63681 -64.90126 -34.21198 5.20838 13.90141 47.50522 16.54283 -37.14270 -27.33806 0.01986 0.00163 8.39220 -27.60333 7.65133 
48.34568 93.98510 -31.44387 6.42018 11.67699 153.55200 -9.27893 26.89565 2.16905 0.00069 0.00610 -0.00570 -8.28593 20.12475 15.32785 -0.98861 9.62519 -0.17786 -141.68208 -63.65830 -118.34846 -20.89008 61.42634 -94.72028 16.07165 8.27361 -6.12123 17.32188 10.31824 -1.16114 81.58105 -0.32211 74.41447 -3.37864 26.36433 102.03088 16.86521 11.44404 9.41019 10.15943 -0.73274 -9.52720 -22.88796 5.25435 64.36639 -5.47292 -0.00131 -0.00289 14.43401 -18.74704 -64.85650 -33.85031 3.44293 14.36230 48.20009 17.59766 -37.97522 -27.00000 0.01507 0.00126 7.94489 -27.31203 7.70046 
47.96608 94.23007 -31.46778 6.78603 11.33406 153.74457 -8.83182 26.95653 2.28634 0.00087 0.00607 -0.00479 -7.76571 19.44428 14.97218 -0.70391 9.47781 -0.15441 -141.20856 -62.88055 -118.01780 -20.18170 61.47790 -95.39093 16.19970 8.40001 -5.81021 17.49217 10.15797 -1.17946 82.17075 -0.79831 74.82703 -3.94894 26.53025 102.87276 16.82650 11.39158 9.22715 10.53504 -1.00549 -8.50825 -22.68988 6.00906 62.94571 -7.76212 -0.00428 -0.00115 16.58205 -18.69013 -64.66974 -33.43815 1.96554 14.81429 48.67923 18.51219 -38.65953 -26.87727 0.01673 0.00325 7.89691 -26.98616 7.86521 
47.63917 94.47184 -31.44017 7.13237 10.97733 153.97266 -8.34549 26.97997 2.33760 0.00096 0.00608 -0.00394 -7.39215 18.88879 14.64422 -0.46685 9.32559 -0.06595 -140.77267 -62.05584 -117.68915 -19.45961 61.54452 -96.07335 16.33323 8.48359 -5.49522 17.60312 10.01536 -1.11527 82.73613 -1.26269 75.28767 -4.53395 26.65018 103.66140 16.80705 11.34647 9.05011 10.89917 -1.31285 -7.64718 -22.40130 6.65416 61.52225 -10.02203 -0.00678 0.00029 18.75808 -18.48829 -64.36816 -32.98373 0.77487 15.25984 48.98574 19.29221 -39.18136 -26.49292 0.01531 0.00381 7.70873 -26.58586 8.13316 
47.36908 94.70258 -31.37133 7.45065 10.61940 154.24391 -7.82846 26.97007 2.32659 0.00092 0.00608 -0.00320 -7.15059 18.45671 14.33522 -0.28118 9.16910 0.06878 -140.37077 -61.20285 -117.35104 -18.74011 61.62853 -96.74918 16.47578 8.54444 -5.16207 17.65206 9.88458 -0.98805 83.27961 -1.70890 75.78102 -5.13332 26.73056 104.39063 16.77176 11.28936 8.88823 11.23886 -1.62959 -6.94748 -22.03237 7.18585 60.11052 -12.25314 -0.00880 0.00139 20.93688 -18.15956 -63.97963 -32.49747 -0.14053 15.70171 49.15219 19.92941 -39.53580 -26.14083 0.01557 0.00482 7.61743 -26.10794 8.42382 
